<?xml version="1.0" encoding="utf-8"?>
<svg viewBox="194.292 23.881 132.363 479.402" xmlns="http://www.w3.org/2000/svg">
  <g transform="matrix(0.58579, 0, 0, 0.62116, 106.037964, 96.982933)">
    <g>
      <path d="M 227.46 530.614 L 309.896 530.614 L 309.896 584.893 L 227.46 584.893 Z" fill="#ffd19c"/>
      <path d="M 281.283 530.614 L 309.895 530.614 L 309.895 584.893 L 281.283 584.893 Z" fill="#ffb17b"/>
      <path d="M 258.954 538.485 L 227.459 538.485 C 210.385 538.485 196.545 525.545 196.545 509.581 L 196.545 458.112 L 273.829 458.112 Z" fill="#ffb17b"/>
      <path d="M 227.536 479.008 C 224.291 480.088 220.796 480.678 217.156 480.678 C 200.082 480.678 186.242 467.738 186.242 451.774 L 186.242 413.239 C 186.242 397.275 200.082 384.335 217.156 384.335 C 223.525 384.335 229.444 386.136 234.363 389.223 L 242.71 389.223 L 242.71 478.031 Z" fill="#ffd19c"/>
      <path d="M 299.591 398.867 L 299.591 272.596 L 237.764 272.596 L 237.764 402.484 Z" fill="#cf2948"/>
      <path d="M 299.591 317.801 L 237.764 317.801 L 237.764 335.249 L 299.591 335.249 Z" fill="#f1385a"/>
      <path d="M 270.979 272.596 L 270.979 400.541 L 299.591 398.867 L 299.591 272.596 Z" fill="#f1385a"/>
      <path d="M 309.895 384.333 L 248.66 384.333 C 237.52 384.333 227.661 392.836 227.462 403.249 C 227.299 411.799 233.092 419.105 241.22 421.782 C 242.336 422.149 242.299 423.602 241.184 423.971 C 233.186 426.62 227.457 433.754 227.457 442.14 C 227.457 450.525 233.186 457.66 241.184 460.308 C 242.298 460.678 242.334 462.131 241.22 462.498 C 233.092 465.174 227.298 472.481 227.461 481.031 C 227.664 491.627 237.323 499.947 248.658 499.947 L 248.709 499.947 C 249.344 499.947 249.86 500.429 249.86 501.023 C 249.86 501.433 249.605 501.798 249.213 501.98 C 242.111 505.281 237.328 512.278 237.793 520.291 C 238.392 530.589 247.88 538.485 258.911 538.485 L 285.476 538.485 L 303.511 536.776 L 309.893 538.485 C 332.657 538.485 351.111 521.231 351.111 499.947 L 351.111 422.87 C 351.114 401.587 332.66 384.333 309.895 384.333 Z" fill="#ffd19c"/>
      <path d="M 309.895 384.333 L 281.283 384.333 C 304.047 384.333 322.501 401.587 322.501 422.87 L 322.501 499.947 C 322.501 521.231 304.047 538.485 281.283 538.485 L 309.895 538.485 C 332.659 538.485 351.113 521.231 351.113 499.947 L 351.113 422.87 C 351.114 401.587 332.66 384.333 309.895 384.333 Z" fill="#ffb17b"/>
      <path d="M 311.184 654.099 L 226.171 654.099 C 215.5 654.099 206.85 646.012 206.85 636.034 L 206.85 586.055 C 206.85 581.067 211.176 577.022 216.511 577.022 L 320.844 577.022 C 326.179 577.022 330.505 581.067 330.505 586.055 L 330.505 636.034 C 330.505 646.012 321.855 654.099 311.184 654.099 Z" fill="#b3e59f"/>
      <g transform="matrix(0, -1.070441, 1.203598, 0, 150.658447, 357.304443)">
        <path d="m427.733 187.733h-343.466c-8.837 0-16-7.163-16-16v-155.733c0-8.837 7.163-16 16-16h343.467c8.837 0 16 7.163 16 16v155.733c-.001 8.837-7.164 16-16.001 16z" fill="#ffa000"/>
        <path d="m427.25 0h-23.694c9.103 0 16.483 7.38 16.483 16.483v154.768c0 9.103-7.38 16.483-16.483 16.483h23.694c9.103 0 16.483-7.38 16.483-16.483v-154.768c0-9.103-7.379-16.483-16.483-16.483z" fill="#ffb957"/>
        <path d="m401.6 153.6h-291.2c-4.418 0-8-3.582-8-8v-103.467c0-4.418 3.582-8 8-8h291.2c4.418 0 8 3.582 8 8v103.467c0 4.418-3.582 8-8 8z" fill="#f9f5f5"/>
        <path d="m401.358 34.133h-23.694c4.552 0 8.241 3.69 8.241 8.241v102.984c0 4.552-3.69 8.241-8.241 8.241h23.694c4.552 0 8.241-3.69 8.241-8.241v-102.983c.001-4.552-3.689-8.242-8.241-8.242z" fill="#e2d8ec"/>
      </g>
      <g fill="#ffb17b" transform="matrix(1.207563, 0, 0, 1.129046, -40.458031, 76.027626)">
        <path d="m281.6 299.474h-56.937c2.035 3.102 5.042 5.509 8.601 6.762.924.325.894 1.612-.03 1.939-3.546 1.256-6.543 3.658-8.572 6.752h56.938c4.268 0 7.726-3.459 7.726-7.726s-3.459-7.727-7.726-7.727z"/>
        <path d="m281.6 333.607h-56.938c2.029 3.094 5.026 5.495 8.572 6.751.923.327.953 1.614.03 1.939-3.559 1.253-6.567 3.66-8.601 6.762h56.937c4.268 0 7.726-3.459 7.726-7.726s-3.459-7.726-7.726-7.726z"/>
        <path d="m281.6 367.743h-56.834c3.176 4.669 8.623 7.724 14.658 7.724h.042c.526 0 .953.427.953.953 0 .363-.211.686-.536.848-2.72 1.352-5.021 3.41-6.679 5.928h48.396c4.268 0 7.726-3.459 7.726-7.726s-3.459-7.727-7.726-7.727z"/>
      </g>
      <path d="M 320.552 577.022 L 291.94 577.022 C 297.437 577.022 301.891 581.189 301.891 586.328 L 301.891 635.489 C 301.891 645.767 292.98 654.099 281.987 654.099 L 310.599 654.099 C 321.592 654.099 330.503 645.767 330.503 635.489 L 330.503 586.328 C 330.505 581.189 326.049 577.022 320.552 577.022 Z" fill="#5fc67f"/>
      <path d="M 206.85 606.837 L 330.505 606.837 L 330.505 624.284 L 206.85 624.284 Z" fill="#5fc67f"/>
    </g>
  </g>
  <g fill="#1273eb" transform="matrix(0, 0.832402, -0.88266, 0, 334.470385, -43.642427) scale(0.9)">
    <path d="m254.578 60.914c-4.268 0-7.726 3.459-7.726 7.726v50.454c0 4.268 3.459 7.726 7.726 7.726 4.268 0 7.726-3.459 7.726-7.726v-50.454c.001-4.268-3.458-7.726-7.726-7.726z"/>
    <path d="m294.045 62.405h-13.867c-2.051 0-4.019.816-5.469 2.269-1.449 1.452-2.261 3.421-2.257 5.473v.035.001 48.115c0 .469.048.926.129 1.372.138 1.848.931 3.592 2.254 4.906 1.448 1.438 3.404 2.243 5.444 2.243h.029c.42-.002 10.318-.039 14.279-.109 15.621-.272 26.958-13.771 26.958-32.098-.002-19.264-11.052-32.207-27.5-32.207zm.27 48.856c-1.49.026-3.915.048-6.337.065-.017-5.641-.037-12.939-.037-16.767 0-3.215-.012-10.821-.022-16.701h6.127c11.177 0 12.045 12.824 12.045 16.755-.001 8.184-3.641 16.506-11.776 16.648z"/>
    <path d="m229.691 89.698c1.575-2.797 2.483-6.017 2.483-9.449 0-10.662-8.674-19.336-19.336-19.336h-14.655c-4.268 0-7.726 3.459-7.726 7.726v23.232.038 27.183c0 2.055.819 4.025 2.276 5.476 1.448 1.442 3.408 2.251 5.451 2.251h.034c.002 0 13.469-.06 17.18-.06 11.748 0 21.307-9.558 21.307-21.307-.001-6.245-2.718-11.853-7.014-15.754zm-16.853-13.332c2.141 0 3.883 1.742 3.883 3.883s-1.742 3.883-3.883 3.883c-1.058 0-3.036.006-5.202.013h-1.726v-7.78h6.928zm2.559 34.941c-1.778 0-5.784.014-9.488.028v-11.73c.603-.002 1.204-.005 1.792-.007h7.696c3.228 0 5.854 2.626 5.854 5.854 0 3.229-2.625 5.855-5.854 5.855z"/>
  </g>
</svg>