<svg version="1.2" xmlns="http://www.w3.org/2000/svg" viewBox="0 0 133 117" width="133" height="117">
	<title>matic-svg</title>
	<style>
		.s0 { fill: #8046e3 } 
	</style>
	<path id="Layer" class="s0" d="m59.3 32.4q-0.2-0.8-0.5-1.7c-0.3-0.8-0.8-1.6-1.3-2.3-0.7-0.8-1.4-1.4-2.3-1.9q-0.2 0-0.3-0.1-2.9-1.8-5.9-3.6-4-2.4-8-4.8c-1.1-0.7-2.3-1-3.6-1.2q-2.2-0.2-4.2 0.7c-0.6 0.2-1.1 0.6-1.6 0.9q-4.1 2.3-8.1 4.7c-1.8 1-3.6 2-5.4 3.1-2.3 1.4-3.7 3.5-4.1 6.3q0 0.4 0 0.8c0 5.7-0.1 11.4 0 17.1 0 2.9 1.3 5.2 3.8 6.8 2.7 1.7 5.4 3.3 8 4.9q3.2 1.9 6.4 3.8c1.6 1 3.3 1.4 5.1 1.3 1.4-0.1 2.7-0.6 3.9-1.3 3.3-2 6.6-4 9.9-6 0.1-0.1 0.3-0.2 0.5-0.2q1.4-0.8 2.8-1.7 2.4-1.4 4.8-2.9c0.8-0.5 1.7-0.9 2.6-1.4q2.8-1.5 5.5-3.1c2.6-1.4 5.2-2.8 7.8-4.4 2.5-1.5 5-2.9 7.6-4.4q3.5-2.1 7-4.2c0.9-0.5 1.8-1.1 2.9-1.5q0.8-0.2 1.7-0.3c0.1-0.1 0.2 0 0.3-0.1q0.2 0 0.3 0 0.6-0.1 1.2 0c1.7 0.1 3.1 0.9 4.6 1.7 1.7 1 3.4 2 5.2 3q4.1 2.5 8.3 4.9c2.4 1.4 4.8 2.7 7.1 4.1 2.1 1.2 4.2 2.3 6.2 3.7 1.9 1.3 3 3.1 3.4 5.5q0 0.1 0.1 0.3c0 0.1-0.1 0.2 0 0.4q0 0.3 0 0.7 0 15.9 0 31.8 0 3.9-2.9 6.5c-0.7 0.7-1.6 1.1-2.4 1.6q-2.3 1.3-4.7 2.7-1.9 1.1-3.7 2.2-2.8 1.6-5.6 3.2-3.2 1.8-6.3 3.7-2.8 1.6-5.5 3.2-0.7 0.4-1.5 0.7-0.6 0.2-1.2 0.2c-1.2 0-2.4 0-3.6 0-1 0.1-1.8-0.3-2.6-0.8q-1.5-0.9-3-1.8-1.5-0.8-3-1.7-1.5-0.9-3-1.8-1.6-0.8-3.1-1.7-1.5-0.9-3.1-1.8-1.5-0.9-3-1.8-1.7-1-3.5-2-1.9-1.1-3.8-2.2c-0.8-0.5-1.6-0.9-2.3-1.4q-2.1-1.5-3-3.9-0.3-0.9-0.4-1.8c-0.1-0.2 0-0.3-0.1-0.4q0-5.8 0-11.5c0-0.3 0.1-0.5 0.4-0.6q3.2-1.9 6.4-3.7 2.6-1.5 5.2-3.1c0.3-0.1 0.6-0.3 0.9-0.5q0 2 0 3.9c0.1 0.2 0.1 0.3 0.1 0.5 0 2.2 0 4.5 0 6.7 0 1.9 0.7 3.6 1.9 5.1 0.8 1 2 1.7 3.1 2.3q3.1 1.8 6.2 3.6c2.5 1.5 4.9 3 7.4 4.4 1.1 0.5 2.2 0.8 3.4 0.9 1.2 0.2 2.5 0 3.6-0.4q0.7-0.3 1.2-0.6 4.8-2.8 9.5-5.6c1.6-1 3.3-2 4.9-3 2.1-1.4 3.4-3.4 3.7-5.9q0.1-0.7 0.1-1.3 0-8.3 0-16.5 0-3.5-2.5-6c-0.7-0.7-1.5-1.2-2.4-1.7q-3.7-2.1-7.4-4.3c-2.1-1.2-4.1-2.5-6.2-3.6-2.6-1.4-5.4-1.5-8-0.2-1.2 0.6-2.3 1.3-3.4 2q-5.1 2.9-10.2 5.9-4.6 2.7-9.1 5.3c-0.2 0.1-0.3 0.1-0.4 0.2q-1.4 0.7-2.7 1.5-1.9 1.1-3.7 2.1-3.1 1.8-6.1 3.6-3 1.7-5.9 3.4-2.8 1.7-5.6 3.3c-1.2 0.7-2.3 1.4-3.5 2q-1.4 0.7-3 0.9c-0.1 0-0.2 0-0.3 0q-0.3 0.1-0.7 0.1-0.1 0-0.3 0-0.3-0.1-0.5-0.1c-0.2 0-0.3 0-0.4 0q-0.4-0.1-0.8-0.2c-0.5 0.1-0.8-0.1-1.2-0.3-1.1-0.4-2-1.1-3-1.6q-5-2.9-9.9-5.8-3.6-2-7.1-4.1c-2.8-1.6-5.5-3.2-8.2-4.8-2.1-1.2-3.5-3-4.1-5.4q-0.1-0.5-0.1-1c0-0.2 0.1-0.3 0-0.5q0-16.4 0-32.8c0.1-0.1 0-0.2 0-0.3 0.1-1.4 0.6-2.5 1.3-3.6 0.7-1.1 1.6-1.8 2.7-2.4 2.1-1.2 4.1-2.4 6.2-3.6q4.6-2.7 9.3-5.4 6.1-3.6 12.2-7.2c0.6-0.3 1.2-0.6 1.8-0.8q0.2 0 0.4 0 2.2 0 4.3 0c0.7 0 1.3 0.3 1.9 0.7q3.7 2.2 7.5 4.4 2.1 1.3 4.3 2.6c0.1 0 0.3 0.1 0.3 0.2q1.7 1 3.3 2 3.9 2.2 7.8 4.5c1.4 0.9 2.8 1.6 4.2 2.6 1.8 1.1 2.9 2.7 3.5 4.8 0.1 0.4 0.2 0.8 0.2 1.2 0.1 0.1 0 0.2 0.1 0.4q0 0.3 0 0.7 0 5.5 0 11c0 0.2-0.1 0.3-0.3 0.5q-1.8 1-3.5 2-1.7 1-3.5 2-2.8 1.6-5.5 3.2-0.1 0-0.1 0 0-0.2 0-0.3 0-5.6 0-11.1c0-0.1 0-0.3-0.1-0.4q0-0.1 0-0.2c0-0.1 0-0.3 0-0.4z"/>
</svg>